<mxfile host="app.diagrams.net" agent="Mozilla/5.0 (Windows NT 10.0; Win64; x64) AppleWebKit/537.36 (KHTML, like Gecko) Chrome/134.0.0.0 Safari/537.36 Edg/134.0.0.0" version="26.1.1">
  <diagram name="ver0.1" id="Pc_uCi_k4K4AXSEXuX1n">
    <mxGraphModel grid="1" page="1" gridSize="10" guides="1" tooltips="1" connect="1" arrows="1" fold="1" pageScale="1" pageWidth="827" pageHeight="1169" math="0" shadow="0">
      <root>
        <mxCell id="0" />
        <mxCell id="1" parent="0" />
        <mxCell id="pPu6R8bAcyK3sgMu2mBe-1" value="" style="group;movable=1;resizable=1;rotatable=1;deletable=1;editable=1;locked=0;connectable=1;" connectable="0" vertex="1" parent="1">
          <mxGeometry x="-317" y="-720" width="1524" height="1564" as="geometry" />
        </mxCell>
        <mxCell id="pPu6R8bAcyK3sgMu2mBe-2" value="" style="ellipse;whiteSpace=wrap;html=1;aspect=fixed;movable=1;resizable=1;rotatable=1;deletable=1;editable=1;locked=0;connectable=1;" vertex="1" parent="pPu6R8bAcyK3sgMu2mBe-1">
          <mxGeometry width="1524" height="1524" as="geometry" />
        </mxCell>
        <mxCell id="pPu6R8bAcyK3sgMu2mBe-3" value="" style="ellipse;whiteSpace=wrap;html=1;aspect=fixed;movable=1;resizable=1;rotatable=1;deletable=1;editable=1;locked=0;connectable=1;" vertex="1" parent="pPu6R8bAcyK3sgMu2mBe-1">
          <mxGeometry x="167" y="260" width="1190" height="1190" as="geometry" />
        </mxCell>
        <mxCell id="pPu6R8bAcyK3sgMu2mBe-4" value="" style="ellipse;whiteSpace=wrap;html=1;aspect=fixed;movable=1;resizable=1;rotatable=1;deletable=1;editable=1;locked=0;connectable=1;" vertex="1" parent="pPu6R8bAcyK3sgMu2mBe-1">
          <mxGeometry x="332" y="520" width="860" height="860" as="geometry" />
        </mxCell>
        <mxCell id="pPu6R8bAcyK3sgMu2mBe-5" value="" style="ellipse;whiteSpace=wrap;html=1;aspect=fixed;movable=1;resizable=1;rotatable=1;deletable=1;editable=1;locked=0;connectable=1;" vertex="1" parent="pPu6R8bAcyK3sgMu2mBe-1">
          <mxGeometry x="457" y="700" width="610" height="610" as="geometry" />
        </mxCell>
        <mxCell id="pPu6R8bAcyK3sgMu2mBe-6" value="" style="group;movable=1;resizable=1;rotatable=1;deletable=1;editable=1;locked=0;connectable=1;" connectable="0" vertex="1" parent="pPu6R8bAcyK3sgMu2mBe-1">
          <mxGeometry x="602" y="910" width="320" height="372" as="geometry" />
        </mxCell>
        <mxCell id="pPu6R8bAcyK3sgMu2mBe-7" value="" style="group;movable=1;resizable=1;rotatable=1;deletable=1;editable=1;locked=0;connectable=1;" connectable="0" vertex="1" parent="pPu6R8bAcyK3sgMu2mBe-6">
          <mxGeometry width="320" height="320" as="geometry" />
        </mxCell>
        <mxCell id="pPu6R8bAcyK3sgMu2mBe-8" value="" style="ellipse;whiteSpace=wrap;html=1;aspect=fixed;movable=1;resizable=1;rotatable=1;deletable=1;editable=1;locked=0;connectable=1;" vertex="1" parent="pPu6R8bAcyK3sgMu2mBe-7">
          <mxGeometry width="320" height="320" as="geometry" />
        </mxCell>
        <mxCell id="pPu6R8bAcyK3sgMu2mBe-9" value="部員" style="shape=umlActor;verticalLabelPosition=bottom;verticalAlign=top;html=1;outlineConnect=0;movable=1;resizable=1;rotatable=1;deletable=1;editable=1;locked=0;connectable=1;" vertex="1" parent="pPu6R8bAcyK3sgMu2mBe-7">
          <mxGeometry x="55" y="170" width="30" height="60" as="geometry" />
        </mxCell>
        <mxCell id="pPu6R8bAcyK3sgMu2mBe-10" value="部員" style="shape=umlActor;verticalLabelPosition=bottom;verticalAlign=top;html=1;outlineConnect=0;movable=1;resizable=1;rotatable=1;deletable=1;editable=1;locked=0;connectable=1;" vertex="1" parent="pPu6R8bAcyK3sgMu2mBe-7">
          <mxGeometry x="145" y="170" width="30" height="60" as="geometry" />
        </mxCell>
        <mxCell id="pPu6R8bAcyK3sgMu2mBe-11" value="ワークリーダー" style="shape=umlActor;verticalLabelPosition=bottom;verticalAlign=top;html=1;outlineConnect=0;movable=1;resizable=1;rotatable=1;deletable=1;editable=1;locked=0;connectable=1;" vertex="1" parent="pPu6R8bAcyK3sgMu2mBe-7">
          <mxGeometry x="145" y="40" width="30" height="60" as="geometry" />
        </mxCell>
        <mxCell id="pPu6R8bAcyK3sgMu2mBe-12" value="部員" style="shape=umlActor;verticalLabelPosition=bottom;verticalAlign=top;html=1;outlineConnect=0;movable=1;resizable=1;rotatable=1;deletable=1;editable=1;locked=0;connectable=1;" vertex="1" parent="pPu6R8bAcyK3sgMu2mBe-7">
          <mxGeometry x="235" y="170" width="30" height="60" as="geometry" />
        </mxCell>
        <mxCell id="pPu6R8bAcyK3sgMu2mBe-13" value="" style="shape=flexArrow;endArrow=classic;html=1;rounded=0;fillColor=#FFE599;width=7.2727272727272725;endSize=5.090909090909091;endWidth=5.19742883379247;movable=1;resizable=1;rotatable=1;deletable=1;editable=1;locked=0;connectable=1;" edge="1" parent="pPu6R8bAcyK3sgMu2mBe-7">
          <mxGeometry width="50" height="50" relative="1" as="geometry">
            <mxPoint x="225" y="200.20999999999998" as="sourcePoint" />
            <mxPoint x="195" y="199.77999999999997" as="targetPoint" />
          </mxGeometry>
        </mxCell>
        <mxCell id="pPu6R8bAcyK3sgMu2mBe-14" value="" style="shape=flexArrow;endArrow=classic;html=1;rounded=0;fillColor=#FFE599;width=7.2727272727272725;endSize=5.090909090909091;endWidth=5.19742883379247;movable=1;resizable=1;rotatable=1;deletable=1;editable=1;locked=0;connectable=1;" edge="1" parent="pPu6R8bAcyK3sgMu2mBe-7">
          <mxGeometry width="50" height="50" relative="1" as="geometry">
            <mxPoint x="128.5" y="200.18" as="sourcePoint" />
            <mxPoint x="98.5" y="199.75" as="targetPoint" />
          </mxGeometry>
        </mxCell>
        <mxCell id="pPu6R8bAcyK3sgMu2mBe-15" value="" style="shape=flexArrow;endArrow=classic;html=1;rounded=0;fillColor=#FFE599;width=7.2727272727272725;endSize=5.090909090909091;endWidth=5.19742883379247;movable=1;resizable=1;rotatable=1;deletable=1;editable=1;locked=0;connectable=1;" edge="1" parent="pPu6R8bAcyK3sgMu2mBe-7">
          <mxGeometry width="50" height="50" relative="1" as="geometry">
            <mxPoint x="85" y="150.43" as="sourcePoint" />
            <mxPoint x="105" y="130" as="targetPoint" />
          </mxGeometry>
        </mxCell>
        <mxCell id="pPu6R8bAcyK3sgMu2mBe-16" value="" style="shape=flexArrow;endArrow=classic;html=1;rounded=0;fillColor=#FFE599;width=7.2727272727272725;endSize=5.090909090909091;endWidth=5.19742883379247;movable=1;resizable=1;rotatable=1;deletable=1;editable=1;locked=0;connectable=1;" edge="1" parent="pPu6R8bAcyK3sgMu2mBe-7">
          <mxGeometry width="50" height="50" relative="1" as="geometry">
            <mxPoint x="215" y="130.43" as="sourcePoint" />
            <mxPoint x="235" y="150" as="targetPoint" />
          </mxGeometry>
        </mxCell>
        <mxCell id="pPu6R8bAcyK3sgMu2mBe-17" value="&lt;span style=&quot;font-size: 14px;&quot;&gt;&lt;b&gt;部室&lt;br&gt;Club Room (Discord / On-site)&lt;/b&gt;&lt;/span&gt;" style="text;html=1;align=center;verticalAlign=middle;whiteSpace=wrap;rounded=0;movable=1;resizable=1;rotatable=1;deletable=1;editable=1;locked=0;connectable=1;" vertex="1" parent="pPu6R8bAcyK3sgMu2mBe-6">
          <mxGeometry x="50.629999999999995" y="320" width="218.75" height="40" as="geometry" />
        </mxCell>
        <mxCell id="pPu6R8bAcyK3sgMu2mBe-18" value="たまに見に来る人" style="shape=umlActor;verticalLabelPosition=bottom;verticalAlign=top;html=1;outlineConnect=0;movable=1;resizable=1;rotatable=1;deletable=1;editable=1;locked=0;connectable=1;" vertex="1" parent="pPu6R8bAcyK3sgMu2mBe-1">
          <mxGeometry x="747" y="750" width="30" height="60" as="geometry" />
        </mxCell>
        <mxCell id="pPu6R8bAcyK3sgMu2mBe-19" value="たまに見に来る人" style="shape=umlActor;verticalLabelPosition=bottom;verticalAlign=top;html=1;outlineConnect=0;movable=1;resizable=1;rotatable=1;deletable=1;editable=1;locked=0;connectable=1;" vertex="1" parent="pPu6R8bAcyK3sgMu2mBe-1">
          <mxGeometry x="627" y="790" width="30" height="60" as="geometry" />
        </mxCell>
        <mxCell id="pPu6R8bAcyK3sgMu2mBe-20" value="たまに見に来る人" style="shape=umlActor;verticalLabelPosition=bottom;verticalAlign=top;html=1;outlineConnect=0;movable=1;resizable=1;rotatable=1;deletable=1;editable=1;locked=0;connectable=1;" vertex="1" parent="pPu6R8bAcyK3sgMu2mBe-1">
          <mxGeometry x="867" y="790" width="30" height="60" as="geometry" />
        </mxCell>
        <mxCell id="pPu6R8bAcyK3sgMu2mBe-21" value="" style="curved=1;endArrow=classic;html=1;rounded=0;fillColor=#fff2cc;strokeColor=#d6b656;strokeWidth=6;movable=1;resizable=1;rotatable=1;deletable=1;editable=1;locked=0;connectable=1;" edge="1" parent="pPu6R8bAcyK3sgMu2mBe-1">
          <mxGeometry width="50" height="50" relative="1" as="geometry">
            <mxPoint x="677" y="980" as="sourcePoint" />
            <mxPoint x="627" y="910" as="targetPoint" />
            <Array as="points">
              <mxPoint x="627" y="980" />
              <mxPoint x="577" y="930" />
            </Array>
          </mxGeometry>
        </mxCell>
        <mxCell id="pPu6R8bAcyK3sgMu2mBe-22" value="" style="curved=1;endArrow=classic;html=1;rounded=0;strokeColor=#d6b656;strokeWidth=6;fillColor=#fff2cc;movable=1;resizable=1;rotatable=1;deletable=1;editable=1;locked=0;connectable=1;" edge="1" parent="pPu6R8bAcyK3sgMu2mBe-1">
          <mxGeometry width="50" height="50" relative="1" as="geometry">
            <mxPoint x="887" y="900" as="sourcePoint" />
            <mxPoint x="847" y="980" as="targetPoint" />
            <Array as="points">
              <mxPoint x="927" y="930" />
              <mxPoint x="917" y="980" />
            </Array>
          </mxGeometry>
        </mxCell>
        <mxCell id="pPu6R8bAcyK3sgMu2mBe-23" value="&lt;span style=&quot;font-size: 14px;&quot;&gt;&lt;b&gt;運動場&lt;/b&gt;&lt;/span&gt;&lt;br&gt;&lt;span style=&quot;font-size: 14px;&quot;&gt;&lt;b&gt;Field&lt;/b&gt;&lt;/span&gt;&lt;b style=&quot;font-size: 14px;&quot;&gt;&amp;nbsp;(Discord / On-site&lt;/b&gt;&lt;b style=&quot;font-size: 14px;&quot;&gt;&amp;nbsp;/ SNS&lt;/b&gt;&lt;b style=&quot;font-size: 14px;&quot;&gt;)&lt;/b&gt;" style="text;html=1;align=center;verticalAlign=middle;whiteSpace=wrap;rounded=0;movable=1;resizable=1;rotatable=1;deletable=1;editable=1;locked=0;connectable=1;" vertex="1" parent="pPu6R8bAcyK3sgMu2mBe-1">
          <mxGeometry x="661.06" y="1310" width="201.87" height="40" as="geometry" />
        </mxCell>
        <mxCell id="pPu6R8bAcyK3sgMu2mBe-24" value="発表会の観客" style="shape=umlActor;verticalLabelPosition=bottom;verticalAlign=top;html=1;outlineConnect=0;movable=1;resizable=1;rotatable=1;deletable=1;editable=1;locked=0;connectable=1;" vertex="1" parent="pPu6R8bAcyK3sgMu2mBe-1">
          <mxGeometry x="587" y="610" width="30" height="60" as="geometry" />
        </mxCell>
        <mxCell id="pPu6R8bAcyK3sgMu2mBe-25" value="発表会の観客" style="shape=umlActor;verticalLabelPosition=bottom;verticalAlign=top;html=1;outlineConnect=0;movable=1;resizable=1;rotatable=1;deletable=1;editable=1;locked=0;connectable=1;" vertex="1" parent="pPu6R8bAcyK3sgMu2mBe-1">
          <mxGeometry x="747" y="560" width="30" height="60" as="geometry" />
        </mxCell>
        <mxCell id="pPu6R8bAcyK3sgMu2mBe-26" value="発表会の観客" style="shape=umlActor;verticalLabelPosition=bottom;verticalAlign=top;html=1;outlineConnect=0;movable=1;resizable=1;rotatable=1;deletable=1;editable=1;locked=0;connectable=1;" vertex="1" parent="pPu6R8bAcyK3sgMu2mBe-1">
          <mxGeometry x="917" y="610" width="30" height="60" as="geometry" />
        </mxCell>
        <mxCell id="pPu6R8bAcyK3sgMu2mBe-27" value="" style="curved=1;endArrow=classic;html=1;rounded=0;fillColor=#fff2cc;strokeColor=#d6b656;strokeWidth=6;movable=1;resizable=1;rotatable=1;deletable=1;editable=1;locked=0;connectable=1;" edge="1" parent="pPu6R8bAcyK3sgMu2mBe-1">
          <mxGeometry width="50" height="50" relative="1" as="geometry">
            <mxPoint x="587" y="810" as="sourcePoint" />
            <mxPoint x="537" y="740" as="targetPoint" />
            <Array as="points">
              <mxPoint x="537" y="810" />
              <mxPoint x="487" y="760" />
            </Array>
          </mxGeometry>
        </mxCell>
        <mxCell id="pPu6R8bAcyK3sgMu2mBe-28" value="" style="curved=1;endArrow=classic;html=1;rounded=0;strokeColor=#d6b656;strokeWidth=6;fillColor=#fff2cc;movable=1;resizable=1;rotatable=1;deletable=1;editable=1;locked=0;connectable=1;" edge="1" parent="pPu6R8bAcyK3sgMu2mBe-1">
          <mxGeometry width="50" height="50" relative="1" as="geometry">
            <mxPoint x="967" y="722" as="sourcePoint" />
            <mxPoint x="927" y="802" as="targetPoint" />
            <Array as="points">
              <mxPoint x="1007" y="752" />
              <mxPoint x="997" y="802" />
            </Array>
          </mxGeometry>
        </mxCell>
        <mxCell id="pPu6R8bAcyK3sgMu2mBe-29" value="&lt;span style=&quot;font-size: 14px;&quot;&gt;&lt;b&gt;発表会&lt;/b&gt;&lt;/span&gt;&lt;br&gt;&lt;span style=&quot;font-size: 14px;&quot;&gt;&lt;b&gt;Showcase&lt;/b&gt;&lt;/span&gt;&lt;b style=&quot;font-size: 14px;&quot;&gt;&amp;nbsp;(On-site&lt;/b&gt;&lt;b style=&quot;font-size: 14px;&quot;&gt;)&lt;/b&gt;" style="text;html=1;align=center;verticalAlign=middle;whiteSpace=wrap;rounded=0;movable=1;resizable=1;rotatable=1;deletable=1;editable=1;locked=0;connectable=1;" vertex="1" parent="pPu6R8bAcyK3sgMu2mBe-1">
          <mxGeometry x="661.06" y="1380" width="201.87" height="40" as="geometry" />
        </mxCell>
        <mxCell id="pPu6R8bAcyK3sgMu2mBe-30" value="公演の観客" style="shape=umlActor;verticalLabelPosition=bottom;verticalAlign=top;html=1;outlineConnect=0;movable=1;resizable=1;rotatable=1;deletable=1;editable=1;locked=0;connectable=1;" vertex="1" parent="pPu6R8bAcyK3sgMu2mBe-1">
          <mxGeometry x="537" y="450" width="30" height="60" as="geometry" />
        </mxCell>
        <mxCell id="pPu6R8bAcyK3sgMu2mBe-31" value="公演の観客" style="shape=umlActor;verticalLabelPosition=bottom;verticalAlign=top;html=1;outlineConnect=0;movable=1;resizable=1;rotatable=1;deletable=1;editable=1;locked=0;connectable=1;" vertex="1" parent="pPu6R8bAcyK3sgMu2mBe-1">
          <mxGeometry x="637" y="360" width="30" height="60" as="geometry" />
        </mxCell>
        <mxCell id="pPu6R8bAcyK3sgMu2mBe-32" value="公演の観客" style="shape=umlActor;verticalLabelPosition=bottom;verticalAlign=top;html=1;outlineConnect=0;movable=1;resizable=1;rotatable=1;deletable=1;editable=1;locked=0;connectable=1;" vertex="1" parent="pPu6R8bAcyK3sgMu2mBe-1">
          <mxGeometry x="487" y="360" width="30" height="60" as="geometry" />
        </mxCell>
        <mxCell id="pPu6R8bAcyK3sgMu2mBe-33" value="公演の観客" style="shape=umlActor;verticalLabelPosition=bottom;verticalAlign=top;html=1;outlineConnect=0;movable=1;resizable=1;rotatable=1;deletable=1;editable=1;locked=0;connectable=1;" vertex="1" parent="pPu6R8bAcyK3sgMu2mBe-1">
          <mxGeometry x="997" y="340" width="30" height="60" as="geometry" />
        </mxCell>
        <mxCell id="pPu6R8bAcyK3sgMu2mBe-34" value="公演の観客" style="shape=umlActor;verticalLabelPosition=bottom;verticalAlign=top;html=1;outlineConnect=0;movable=1;resizable=1;rotatable=1;deletable=1;editable=1;locked=0;connectable=1;" vertex="1" parent="pPu6R8bAcyK3sgMu2mBe-1">
          <mxGeometry x="967" y="460" width="30" height="60" as="geometry" />
        </mxCell>
        <mxCell id="pPu6R8bAcyK3sgMu2mBe-35" value="公演の観客" style="shape=umlActor;verticalLabelPosition=bottom;verticalAlign=top;html=1;outlineConnect=0;movable=1;resizable=1;rotatable=1;deletable=1;editable=1;locked=0;connectable=1;" vertex="1" parent="pPu6R8bAcyK3sgMu2mBe-1">
          <mxGeometry x="747" y="410" width="30" height="60" as="geometry" />
        </mxCell>
        <mxCell id="pPu6R8bAcyK3sgMu2mBe-36" value="公演の観客" style="shape=umlActor;verticalLabelPosition=bottom;verticalAlign=top;html=1;outlineConnect=0;movable=1;resizable=1;rotatable=1;deletable=1;editable=1;locked=0;connectable=1;" vertex="1" parent="pPu6R8bAcyK3sgMu2mBe-1">
          <mxGeometry x="847" y="370" width="30" height="60" as="geometry" />
        </mxCell>
        <mxCell id="pPu6R8bAcyK3sgMu2mBe-37" value="公演の観客" style="shape=umlActor;verticalLabelPosition=bottom;verticalAlign=top;html=1;outlineConnect=0;movable=1;resizable=1;rotatable=1;deletable=1;editable=1;locked=0;connectable=1;" vertex="1" parent="pPu6R8bAcyK3sgMu2mBe-1">
          <mxGeometry x="417" y="460" width="30" height="60" as="geometry" />
        </mxCell>
        <mxCell id="pPu6R8bAcyK3sgMu2mBe-38" value="公演の観客" style="shape=umlActor;verticalLabelPosition=bottom;verticalAlign=top;html=1;outlineConnect=0;movable=1;resizable=1;rotatable=1;deletable=1;editable=1;locked=0;connectable=1;" vertex="1" parent="pPu6R8bAcyK3sgMu2mBe-1">
          <mxGeometry x="1097" y="470" width="30" height="60" as="geometry" />
        </mxCell>
        <mxCell id="pPu6R8bAcyK3sgMu2mBe-39" value="公演の観客" style="shape=umlActor;verticalLabelPosition=bottom;verticalAlign=top;html=1;outlineConnect=0;movable=1;resizable=1;rotatable=1;deletable=1;editable=1;locked=0;connectable=1;" vertex="1" parent="pPu6R8bAcyK3sgMu2mBe-1">
          <mxGeometry x="737" y="290" width="30" height="60" as="geometry" />
        </mxCell>
        <mxCell id="pPu6R8bAcyK3sgMu2mBe-40" value="公演の観客" style="shape=umlActor;verticalLabelPosition=bottom;verticalAlign=top;html=1;outlineConnect=0;movable=1;resizable=1;rotatable=1;deletable=1;editable=1;locked=0;connectable=1;" vertex="1" parent="pPu6R8bAcyK3sgMu2mBe-1">
          <mxGeometry x="1162" y="620" width="30" height="60" as="geometry" />
        </mxCell>
        <mxCell id="pPu6R8bAcyK3sgMu2mBe-41" value="公演の観客" style="shape=umlActor;verticalLabelPosition=bottom;verticalAlign=top;html=1;outlineConnect=0;movable=1;resizable=1;rotatable=1;deletable=1;editable=1;locked=0;connectable=1;" vertex="1" parent="pPu6R8bAcyK3sgMu2mBe-1">
          <mxGeometry x="317" y="510" width="30" height="60" as="geometry" />
        </mxCell>
        <mxCell id="pPu6R8bAcyK3sgMu2mBe-42" value="公演の観客" style="shape=umlActor;verticalLabelPosition=bottom;verticalAlign=top;html=1;outlineConnect=0;movable=1;resizable=1;rotatable=1;deletable=1;editable=1;locked=0;connectable=1;" vertex="1" parent="pPu6R8bAcyK3sgMu2mBe-1">
          <mxGeometry x="347" y="610" width="30" height="60" as="geometry" />
        </mxCell>
        <mxCell id="pPu6R8bAcyK3sgMu2mBe-43" value="公演の観客" style="shape=umlActor;verticalLabelPosition=bottom;verticalAlign=top;html=1;outlineConnect=0;movable=1;resizable=1;rotatable=1;deletable=1;editable=1;locked=0;connectable=1;" vertex="1" parent="pPu6R8bAcyK3sgMu2mBe-1">
          <mxGeometry x="1197" y="530" width="30" height="60" as="geometry" />
        </mxCell>
        <mxCell id="pPu6R8bAcyK3sgMu2mBe-44" value="" style="curved=1;endArrow=classic;html=1;rounded=0;fillColor=#fff2cc;strokeColor=#d6b656;strokeWidth=6;movable=1;resizable=1;rotatable=1;deletable=1;editable=1;locked=0;connectable=1;" edge="1" parent="pPu6R8bAcyK3sgMu2mBe-1">
          <mxGeometry width="50" height="50" relative="1" as="geometry">
            <mxPoint x="517" y="660" as="sourcePoint" />
            <mxPoint x="467" y="590" as="targetPoint" />
            <Array as="points">
              <mxPoint x="467" y="660" />
              <mxPoint x="417" y="610" />
            </Array>
          </mxGeometry>
        </mxCell>
        <mxCell id="pPu6R8bAcyK3sgMu2mBe-45" value="" style="curved=1;endArrow=classic;html=1;rounded=0;strokeColor=#d6b656;strokeWidth=6;fillColor=#fff2cc;movable=1;resizable=1;rotatable=1;deletable=1;editable=1;locked=0;connectable=1;" edge="1" parent="pPu6R8bAcyK3sgMu2mBe-1">
          <mxGeometry width="50" height="50" relative="1" as="geometry">
            <mxPoint x="1047" y="570" as="sourcePoint" />
            <mxPoint x="1007" y="650" as="targetPoint" />
            <Array as="points">
              <mxPoint x="1087" y="600" />
              <mxPoint x="1077" y="650" />
            </Array>
          </mxGeometry>
        </mxCell>
        <mxCell id="pPu6R8bAcyK3sgMu2mBe-46" value="&lt;span style=&quot;font-size: 14px;&quot;&gt;&lt;b&gt;公演&lt;/b&gt;&lt;/span&gt;&lt;br&gt;&lt;span style=&quot;font-size: 14px;&quot;&gt;&lt;b&gt;Public Stage&lt;/b&gt;&lt;/span&gt;&lt;b style=&quot;font-size: 14px;&quot;&gt;&amp;nbsp;(On-site&lt;/b&gt;&lt;b style=&quot;font-size: 14px;&quot;&gt;)&lt;/b&gt;" style="text;html=1;align=center;verticalAlign=middle;whiteSpace=wrap;rounded=0;movable=1;resizable=1;rotatable=1;deletable=1;editable=1;locked=0;connectable=1;" vertex="1" parent="pPu6R8bAcyK3sgMu2mBe-1">
          <mxGeometry x="661.06" y="1450" width="201.87" height="40" as="geometry" />
        </mxCell>
        <mxCell id="pPu6R8bAcyK3sgMu2mBe-47" value="赤の他人" style="shape=umlActor;verticalLabelPosition=bottom;verticalAlign=top;html=1;outlineConnect=0;movable=1;resizable=1;rotatable=1;deletable=1;editable=1;locked=0;connectable=1;" vertex="1" parent="pPu6R8bAcyK3sgMu2mBe-1">
          <mxGeometry x="357" y="210" width="30" height="60" as="geometry" />
        </mxCell>
        <mxCell id="pPu6R8bAcyK3sgMu2mBe-48" value="赤の他人" style="shape=umlActor;verticalLabelPosition=bottom;verticalAlign=top;html=1;outlineConnect=0;movable=1;resizable=1;rotatable=1;deletable=1;editable=1;locked=0;connectable=1;" vertex="1" parent="pPu6R8bAcyK3sgMu2mBe-1">
          <mxGeometry x="467" y="130" width="30" height="60" as="geometry" />
        </mxCell>
        <mxCell id="pPu6R8bAcyK3sgMu2mBe-49" value="赤の他人" style="shape=umlActor;verticalLabelPosition=bottom;verticalAlign=top;html=1;outlineConnect=0;movable=1;resizable=1;rotatable=1;deletable=1;editable=1;locked=0;connectable=1;" vertex="1" parent="pPu6R8bAcyK3sgMu2mBe-1">
          <mxGeometry x="567" y="150" width="30" height="60" as="geometry" />
        </mxCell>
        <mxCell id="pPu6R8bAcyK3sgMu2mBe-50" value="赤の他人" style="shape=umlActor;verticalLabelPosition=bottom;verticalAlign=top;html=1;outlineConnect=0;movable=1;resizable=1;rotatable=1;deletable=1;editable=1;locked=0;connectable=1;" vertex="1" parent="pPu6R8bAcyK3sgMu2mBe-1">
          <mxGeometry x="727" y="90" width="30" height="60" as="geometry" />
        </mxCell>
        <mxCell id="pPu6R8bAcyK3sgMu2mBe-51" value="赤の他人" style="shape=umlActor;verticalLabelPosition=bottom;verticalAlign=top;html=1;outlineConnect=0;movable=1;resizable=1;rotatable=1;deletable=1;editable=1;locked=0;connectable=1;" vertex="1" parent="pPu6R8bAcyK3sgMu2mBe-1">
          <mxGeometry x="847" y="76" width="30" height="60" as="geometry" />
        </mxCell>
        <mxCell id="pPu6R8bAcyK3sgMu2mBe-52" value="赤の他人" style="shape=umlActor;verticalLabelPosition=bottom;verticalAlign=top;html=1;outlineConnect=0;movable=1;resizable=1;rotatable=1;deletable=1;editable=1;locked=0;connectable=1;" vertex="1" parent="pPu6R8bAcyK3sgMu2mBe-1">
          <mxGeometry x="987" y="136" width="30" height="60" as="geometry" />
        </mxCell>
        <mxCell id="pPu6R8bAcyK3sgMu2mBe-53" value="赤の他人" style="shape=umlActor;verticalLabelPosition=bottom;verticalAlign=top;html=1;outlineConnect=0;movable=1;resizable=1;rotatable=1;deletable=1;editable=1;locked=0;connectable=1;" vertex="1" parent="pPu6R8bAcyK3sgMu2mBe-1">
          <mxGeometry x="1077" y="190" width="30" height="60" as="geometry" />
        </mxCell>
        <mxCell id="pPu6R8bAcyK3sgMu2mBe-54" value="赤の他人" style="shape=umlActor;verticalLabelPosition=bottom;verticalAlign=top;html=1;outlineConnect=0;movable=1;resizable=1;rotatable=1;deletable=1;editable=1;locked=0;connectable=1;" vertex="1" parent="pPu6R8bAcyK3sgMu2mBe-1">
          <mxGeometry x="1187" y="270" width="30" height="60" as="geometry" />
        </mxCell>
        <mxCell id="pPu6R8bAcyK3sgMu2mBe-55" value="赤の他人" style="shape=umlActor;verticalLabelPosition=bottom;verticalAlign=top;html=1;outlineConnect=0;movable=1;resizable=1;rotatable=1;deletable=1;editable=1;locked=0;connectable=1;" vertex="1" parent="pPu6R8bAcyK3sgMu2mBe-1">
          <mxGeometry x="1257" y="350" width="30" height="60" as="geometry" />
        </mxCell>
        <mxCell id="pPu6R8bAcyK3sgMu2mBe-56" value="赤の他人" style="shape=umlActor;verticalLabelPosition=bottom;verticalAlign=top;html=1;outlineConnect=0;movable=1;resizable=1;rotatable=1;deletable=1;editable=1;locked=0;connectable=1;" vertex="1" parent="pPu6R8bAcyK3sgMu2mBe-1">
          <mxGeometry x="247" y="280" width="30" height="60" as="geometry" />
        </mxCell>
        <mxCell id="pPu6R8bAcyK3sgMu2mBe-57" value="赤の他人" style="shape=umlActor;verticalLabelPosition=bottom;verticalAlign=top;html=1;outlineConnect=0;movable=1;resizable=1;rotatable=1;deletable=1;editable=1;locked=0;connectable=1;" vertex="1" parent="pPu6R8bAcyK3sgMu2mBe-1">
          <mxGeometry x="187" y="370" width="30" height="60" as="geometry" />
        </mxCell>
        <mxCell id="pPu6R8bAcyK3sgMu2mBe-58" value="赤の他人" style="shape=umlActor;verticalLabelPosition=bottom;verticalAlign=top;html=1;outlineConnect=0;movable=1;resizable=1;rotatable=1;deletable=1;editable=1;locked=0;connectable=1;" vertex="1" parent="pPu6R8bAcyK3sgMu2mBe-1">
          <mxGeometry x="117" y="470" width="30" height="60" as="geometry" />
        </mxCell>
        <mxCell id="pPu6R8bAcyK3sgMu2mBe-59" value="赤の他人" style="shape=umlActor;verticalLabelPosition=bottom;verticalAlign=top;html=1;outlineConnect=0;movable=1;resizable=1;rotatable=1;deletable=1;editable=1;locked=0;connectable=1;" vertex="1" parent="pPu6R8bAcyK3sgMu2mBe-1">
          <mxGeometry x="1307" y="460" width="30" height="60" as="geometry" />
        </mxCell>
        <mxCell id="pPu6R8bAcyK3sgMu2mBe-60" value="赤の他人" style="shape=umlActor;verticalLabelPosition=bottom;verticalAlign=top;html=1;outlineConnect=0;movable=1;resizable=1;rotatable=1;deletable=1;editable=1;locked=0;connectable=1;" vertex="1" parent="pPu6R8bAcyK3sgMu2mBe-1">
          <mxGeometry x="892" y="180" width="30" height="60" as="geometry" />
        </mxCell>
        <mxCell id="pPu6R8bAcyK3sgMu2mBe-61" value="赤の他人" style="shape=umlActor;verticalLabelPosition=bottom;verticalAlign=top;html=1;outlineConnect=0;movable=1;resizable=1;rotatable=1;deletable=1;editable=1;locked=0;connectable=1;" vertex="1" parent="pPu6R8bAcyK3sgMu2mBe-1">
          <mxGeometry x="637" y="40" width="30" height="60" as="geometry" />
        </mxCell>
        <mxCell id="pPu6R8bAcyK3sgMu2mBe-62" value="&lt;span style=&quot;font-size: 14px;&quot;&gt;&lt;b&gt;公共・共有の場&lt;/b&gt;&lt;/span&gt;&lt;br&gt;&lt;span style=&quot;font-size: 14px;&quot;&gt;&lt;b&gt;Commons&lt;/b&gt;&lt;/span&gt;" style="text;html=1;align=center;verticalAlign=middle;whiteSpace=wrap;rounded=0;movable=1;resizable=1;rotatable=1;deletable=1;editable=1;locked=0;connectable=1;" vertex="1" parent="pPu6R8bAcyK3sgMu2mBe-1">
          <mxGeometry x="661.0699999999999" y="1524" width="201.87" height="40" as="geometry" />
        </mxCell>
        <mxCell id="pPu6R8bAcyK3sgMu2mBe-63" value="" style="curved=1;endArrow=classic;html=1;rounded=0;fillColor=#fff2cc;strokeColor=#d6b656;strokeWidth=6;movable=1;resizable=1;rotatable=1;deletable=1;editable=1;locked=0;connectable=1;" edge="1" parent="pPu6R8bAcyK3sgMu2mBe-1">
          <mxGeometry width="50" height="50" relative="1" as="geometry">
            <mxPoint x="412" y="435" as="sourcePoint" />
            <mxPoint x="362" y="365" as="targetPoint" />
            <Array as="points">
              <mxPoint x="362" y="435" />
              <mxPoint x="312" y="385" />
            </Array>
          </mxGeometry>
        </mxCell>
        <mxCell id="pPu6R8bAcyK3sgMu2mBe-64" value="" style="curved=1;endArrow=classic;html=1;rounded=0;strokeColor=#d6b656;strokeWidth=6;fillColor=#fff2cc;movable=1;resizable=1;rotatable=1;deletable=1;editable=1;locked=0;connectable=1;" edge="1" parent="pPu6R8bAcyK3sgMu2mBe-1">
          <mxGeometry width="50" height="50" relative="1" as="geometry">
            <mxPoint x="1137" y="350" as="sourcePoint" />
            <mxPoint x="1097" y="430" as="targetPoint" />
            <Array as="points">
              <mxPoint x="1177" y="380" />
              <mxPoint x="1167" y="430" />
            </Array>
          </mxGeometry>
        </mxCell>
      </root>
    </mxGraphModel>
  </diagram>
</mxfile>
